<svg width="48" height="48" viewBox="0 0 48 48" fill="none" xmlns="http://www.w3.org/2000/svg">
<path fill-rule="evenodd" clip-rule="evenodd" d="M5.53125 28.2656H22.5625V32.6719H5.53125V28.2656ZM5.53125 35.9297H22.5625V40.3359H5.53125V35.9297Z" fill="white" fill-opacity="0.5"/>
<path d="M42.531 41.0269L26.1374 41.0269L26.1375 27.7725L42.3276 27.7725L42.3276 31.8709L30.4393 31.8709L30.4393 36.8994L42.5311 36.8994L42.531 41.0269Z" fill="white"/>
<path d="M33.7024 17.3779C32.5203 18.8506 31.1736 20.0133 29.6621 20.8659C28.17 21.6991 26.6489 22.1254 25.0986 22.1448V17.9592C26.1644 17.9398 27.2593 17.5038 28.3832 16.6512C29.5265 15.7986 30.505 14.6262 31.3189 13.1341C32.1328 11.6421 32.6172 10.0046 32.7722 8.22187L37.1032 8.94854C36.9288 10.6732 36.4831 12.3203 35.7661 13.8899L43.7304 18.8021L41.5213 22.4064L33.7024 17.3779Z" fill="white"/>
<path d="M22.4537 12.7781H5.47876V8.91221H11.8153V6.58688L16.1172 6.58688V8.91221H22.4537V12.7781ZM13.9662 13.6501C16.0396 13.6501 17.7449 14.1151 19.082 15.0453C20.4384 15.956 21.1166 17.235 21.1166 18.8821C21.1166 20.5486 20.4481 21.8372 19.111 22.7479C17.774 23.6587 16.059 24.1141 13.9662 24.1141C11.8734 24.1141 10.1585 23.6587 8.82143 22.7479C7.48436 21.8372 6.81583 20.5486 6.81583 18.8821C6.81583 17.235 7.48436 15.956 8.82143 15.0453C10.1779 14.1151 11.8928 13.6501 13.9662 13.6501ZM13.9662 20.5679C14.8382 20.5679 15.5261 20.4226 16.03 20.1319C16.5532 19.8219 16.8148 19.4053 16.8148 18.8821C16.8148 18.3589 16.5532 17.9519 16.03 17.6613C15.5261 17.3706 14.8382 17.2253 13.9662 17.2253C13.0942 17.2253 12.3966 17.3706 11.8734 17.6613C11.3502 17.9519 11.0886 18.3589 11.0886 18.8821C11.0886 19.4053 11.3502 19.8219 11.8734 20.1319C12.3966 20.4226 13.0942 20.5679 13.9662 20.5679Z" fill="white"/>
</svg>
