<svg width="639" height="535" viewBox="0 0 639 535" fill="none" xmlns="http://www.w3.org/2000/svg">
<path d="M639 268.032C639 319.795 625.555 365.885 598.664 406.302C572.482 446.72 535.331 478.274 487.211 500.964C439.091 523.655 383.542 535 320.561 535C257.581 535 201.678 523.655 152.85 500.964C104.731 478.274 67.2259 446.72 40.3355 406.302C13.4452 365.176 0 319.086 0 268.032C0 216.269 13.4452 170.179 40.3355 129.761C67.2259 88.6349 104.731 56.7263 152.85 34.0358C201.678 11.3453 257.581 0 320.561 0C383.542 0 439.091 11.3453 487.211 34.0358C535.331 56.7263 572.482 88.6349 598.664 129.761C625.555 170.179 639 216.269 639 268.032ZM183.633 268.032C183.633 297.813 196.37 322.276 221.846 341.421C248.028 359.858 280.934 369.076 320.561 369.076C360.189 369.076 392.387 359.858 417.154 341.421C442.63 322.276 455.367 297.813 455.367 268.032C455.367 238.251 442.63 213.787 417.154 194.642C391.679 174.788 359.482 164.861 320.561 164.861C280.934 164.861 248.028 174.788 221.846 194.642C196.37 213.787 183.633 238.251 183.633 268.032Z" fill="white" fill-opacity="0.1"/>
</svg>
