<svg width="163" height="26" viewBox="0 0 163 26" fill="none" xmlns="http://www.w3.org/2000/svg">
<path d="M6.74156 1.33333C9.01712 1.33333 10.7949 1.90222 12.0749 3.04C13.3727 4.16 14.0216 5.71556 14.0216 7.70667C14.0216 9.69778 13.3727 11.2622 12.0749 12.4C10.7949 13.5378 9.01712 14.1067 6.74156 14.1067H2.02156V20H0.101563V1.33333H6.74156ZM6.68823 12.3733C8.44823 12.3733 9.78156 11.9733 10.6882 11.1733C11.6127 10.3556 12.0749 9.2 12.0749 7.70667C12.0749 6.21333 11.6127 5.06667 10.6882 4.26667C9.76378 3.46667 8.43045 3.06667 6.68823 3.06667H2.02156V12.3733H6.68823ZM19.0267 8.85333C19.4356 7.89333 20.0578 7.15556 20.8933 6.64C21.7467 6.10667 22.7778 5.84 23.9867 5.84V7.70667H23.5333C22.1467 7.70667 21.0622 8.15111 20.28 9.04C19.4978 9.92889 19.1067 11.1911 19.1067 12.8267V20H17.2133V6H19.0267V8.85333ZM38.5229 13.4667H27.4029C27.4563 14.4444 27.7051 15.3156 28.1496 16.08C28.6118 16.8444 29.2251 17.44 29.9896 17.8667C30.7718 18.2756 31.6429 18.48 32.6029 18.48C33.4385 18.48 34.2029 18.3289 34.8963 18.0267C35.5896 17.7244 36.1762 17.2622 36.6562 16.64L37.7229 17.84C37.1185 18.5867 36.3718 19.1556 35.4829 19.5467C34.594 19.9378 33.6251 20.1333 32.5763 20.1333C31.2074 20.1333 29.9896 19.8311 28.9229 19.2267C27.8563 18.6044 27.0207 17.7511 26.4163 16.6667C25.8296 15.5822 25.5363 14.3556 25.5363 12.9867C25.5363 11.6178 25.8207 10.3911 26.3896 9.30667C26.9585 8.22222 27.7407 7.37778 28.7363 6.77333C29.7318 6.15111 30.8429 5.84 32.0696 5.84C33.2963 5.84 34.3985 6.14222 35.3763 6.74667C36.3718 7.33333 37.1451 8.16889 37.6963 9.25333C38.2651 10.32 38.5496 11.5467 38.5496 12.9333L38.5229 13.4667ZM32.0963 7.44C30.7985 7.44 29.714 7.88444 28.8429 8.77333C27.9896 9.64444 27.5096 10.7822 27.4029 12.1867H36.7896C36.6651 10.8 36.1674 9.66222 35.2963 8.77333C34.4429 7.88444 33.3763 7.44 32.0963 7.44ZM45.2619 20.1333C44.1952 20.1333 43.1641 19.9733 42.1685 19.6533C41.173 19.3156 40.3997 18.8889 39.8485 18.3733L40.5685 16.9333C41.1374 17.3956 41.8485 17.7867 42.7019 18.1067C43.5552 18.4089 44.4352 18.56 45.3419 18.56C46.5863 18.56 47.493 18.3556 48.0619 17.9467C48.6485 17.52 48.9419 16.9422 48.9419 16.2133C48.9419 15.6978 48.7819 15.2889 48.4619 14.9867C48.1419 14.6844 47.7419 14.4622 47.2619 14.32C46.7819 14.16 46.1152 14 45.2619 13.84C44.1952 13.6444 43.3241 13.4311 42.6485 13.2C41.9908 12.9689 41.4308 12.5867 40.9685 12.0533C40.5063 11.52 40.2752 10.7822 40.2752 9.84C40.2752 8.68444 40.7374 7.73333 41.6619 6.98667C42.5863 6.22222 43.893 5.84 45.5819 5.84C46.4352 5.84 47.2885 5.96444 48.1419 6.21333C49.013 6.46222 49.7241 6.79111 50.2752 7.2L49.5552 8.66667C48.9863 8.25778 48.3552 7.95556 47.6619 7.76C46.9863 7.54667 46.293 7.44 45.5819 7.44C44.4263 7.44 43.5552 7.65333 42.9685 8.08C42.3997 8.50667 42.1152 9.07556 42.1152 9.78667C42.1152 10.32 42.2752 10.7467 42.5952 11.0667C42.933 11.3867 43.3508 11.6267 43.8485 11.7867C44.3641 11.9467 45.0397 12.1067 45.8752 12.2667C46.9241 12.4622 47.7685 12.6756 48.4085 12.9067C49.0663 13.1378 49.6174 13.5111 50.0619 14.0267C50.5241 14.5422 50.7552 15.2533 50.7552 16.16C50.7552 17.3689 50.2752 18.3378 49.3152 19.0667C48.373 19.7778 47.0219 20.1333 45.2619 20.1333ZM65.1714 13.4667H54.0514C54.1047 14.4444 54.3536 15.3156 54.798 16.08C55.2602 16.8444 55.8736 17.44 56.638 17.8667C57.4202 18.2756 58.2914 18.48 59.2514 18.48C60.0869 18.48 60.8514 18.3289 61.5447 18.0267C62.238 17.7244 62.8247 17.2622 63.3047 16.64L64.3714 17.84C63.7669 18.5867 63.0202 19.1556 62.1314 19.5467C61.2425 19.9378 60.2736 20.1333 59.2247 20.1333C57.8558 20.1333 56.638 19.8311 55.5714 19.2267C54.5047 18.6044 53.6691 17.7511 53.0647 16.6667C52.478 15.5822 52.1847 14.3556 52.1847 12.9867C52.1847 11.6178 52.4691 10.3911 53.038 9.30667C53.6069 8.22222 54.3891 7.37778 55.3847 6.77333C56.3802 6.15111 57.4914 5.84 58.718 5.84C59.9447 5.84 61.0469 6.14222 62.0247 6.74667C63.0202 7.33333 63.7936 8.16889 64.3447 9.25333C64.9136 10.32 65.198 11.5467 65.198 12.9333L65.1714 13.4667ZM58.7447 7.44C57.4469 7.44 56.3625 7.88444 55.4914 8.77333C54.638 9.64444 54.158 10.7822 54.0514 12.1867H63.438C63.3136 10.8 62.8158 9.66222 61.9447 8.77333C61.0914 7.88444 60.0247 7.44 58.7447 7.44ZM74.9236 5.84C76.577 5.84 77.8925 6.35556 78.8703 7.38667C79.8481 8.4 80.337 9.88444 80.337 11.84V20H78.4436V12.08C78.4436 10.6222 78.097 9.51111 77.4036 8.74667C76.7281 7.98222 75.7592 7.6 74.497 7.6C73.0925 7.6 71.9725 8.05333 71.137 8.96C70.3192 9.84889 69.9103 11.0844 69.9103 12.6667V20H68.017V6H69.8303V8.8C70.2925 7.87556 70.9592 7.15556 71.8303 6.64C72.7192 6.10667 73.7503 5.84 74.9236 5.84ZM91.5456 19.1733C91.2078 19.4933 90.7901 19.7333 90.2923 19.8933C89.7945 20.0533 89.2701 20.1333 88.719 20.1333C87.4745 20.1333 86.5056 19.7778 85.8123 19.0667C85.1367 18.3378 84.799 17.3333 84.799 16.0533V7.68H82.4523V6.10667H84.799V2.90667H86.6656V6.10667H90.6923V7.68H86.6656V15.9467C86.6656 16.7822 86.8612 17.4222 87.2523 17.8667C87.6434 18.2933 88.2123 18.5067 88.959 18.5067C89.7234 18.5067 90.3723 18.2667 90.9056 17.7867L91.5456 19.1733ZM105.343 13.4667H94.2232C94.2766 14.4444 94.5255 15.3156 94.9699 16.08C95.4321 16.8444 96.0455 17.44 96.8099 17.8667C97.5921 18.2756 98.4632 18.48 99.4232 18.48C100.259 18.48 101.023 18.3289 101.717 18.0267C102.41 17.7244 102.997 17.2622 103.477 16.64L104.543 17.84C103.939 18.5867 103.192 19.1556 102.303 19.5467C101.414 19.9378 100.445 20.1333 99.3966 20.1333C98.0277 20.1333 96.8099 19.8311 95.7432 19.2267C94.6766 18.6044 93.841 17.7511 93.2366 16.6667C92.6499 15.5822 92.3566 14.3556 92.3566 12.9867C92.3566 11.6178 92.641 10.3911 93.2099 9.30667C93.7788 8.22222 94.561 7.37778 95.5566 6.77333C96.5521 6.15111 97.6632 5.84 98.8899 5.84C100.117 5.84 101.219 6.14222 102.197 6.74667C103.192 7.33333 103.965 8.16889 104.517 9.25333C105.085 10.32 105.37 11.5467 105.37 12.9333L105.343 13.4667ZM98.9166 7.44C97.6188 7.44 96.5343 7.88444 95.6632 8.77333C94.8099 9.64444 94.3299 10.7822 94.2232 12.1867H103.61C103.485 10.8 102.988 9.66222 102.117 8.77333C101.263 7.88444 100.197 7.44 98.9166 7.44ZM120.696 20H118.909V16.9333C118.393 17.9467 117.682 18.7378 116.776 19.3067C115.887 19.8578 114.864 20.1333 113.709 20.1333C112.464 20.1333 111.344 19.8311 110.349 19.2267C109.353 18.6222 108.562 17.7778 107.976 16.6933C107.407 15.6089 107.122 14.3733 107.122 12.9867C107.122 11.6 107.407 10.3644 107.976 9.28C108.562 8.19555 109.353 7.35111 110.349 6.74667C111.344 6.14222 112.464 5.84 113.709 5.84C114.829 5.84 115.833 6.11555 116.722 6.66667C117.629 7.21778 118.331 7.98222 118.829 8.96V0.213333H120.696V20ZM113.949 18.4533C114.873 18.4533 115.709 18.2311 116.456 17.7867C117.202 17.3244 117.789 16.6756 118.216 15.84C118.642 15.0044 118.856 14.0533 118.856 12.9867C118.856 11.92 118.642 10.9778 118.216 10.16C117.789 9.32444 117.202 8.68444 116.456 8.24C115.709 7.77778 114.873 7.54667 113.949 7.54667C113.024 7.54667 112.189 7.77778 111.442 8.24C110.696 8.68444 110.109 9.32444 109.682 10.16C109.256 10.9778 109.042 11.92 109.042 12.9867C109.042 14.0533 109.256 15.0044 109.682 15.84C110.109 16.6756 110.696 17.3244 111.442 17.7867C112.189 18.2311 113.024 18.4533 113.949 18.4533ZM141.14 10.3733C142.402 10.6222 143.362 11.1467 144.02 11.9467C144.695 12.7289 145.033 13.76 145.033 15.04C145.033 16.64 144.464 17.8667 143.326 18.72C142.206 19.5733 140.544 20 138.34 20H130.18V1.33333H137.833C139.806 1.33333 141.344 1.75111 142.446 2.58667C143.549 3.42222 144.1 4.59556 144.1 6.10667C144.1 7.17333 143.833 8.07111 143.3 8.8C142.784 9.51111 142.064 10.0356 141.14 10.3733ZM132.1 9.76H137.7C139.122 9.76 140.215 9.46667 140.98 8.88C141.762 8.29333 142.153 7.44889 142.153 6.34667C142.153 5.24444 141.762 4.40889 140.98 3.84C140.215 3.25333 139.122 2.96 137.7 2.96H132.1V9.76ZM138.286 18.3733C139.869 18.3733 141.06 18.0889 141.86 17.52C142.66 16.9511 143.06 16.0622 143.06 14.8533C143.06 12.4889 141.469 11.3067 138.286 11.3067H132.1V18.3733H138.286ZM152.892 21.68C152.359 22.9956 151.728 23.9289 150.999 24.48C150.27 25.0311 149.417 25.3067 148.439 25.3067C147.799 25.3067 147.186 25.2 146.599 24.9867C146.03 24.7733 145.559 24.4622 145.186 24.0533L146.012 22.5867C146.67 23.2978 147.461 23.6533 148.386 23.6533C148.937 23.6533 149.399 23.5111 149.772 23.2267C150.146 22.96 150.466 22.5867 150.732 22.1067C150.999 21.6444 151.337 20.9511 151.746 20.0267L145.799 6H147.746L152.706 17.7867L157.666 6H159.532L152.892 21.68ZM161.056 20.1333C160.648 20.1333 160.301 20 160.016 19.7333C159.75 19.4489 159.616 19.0933 159.616 18.6667C159.616 18.2578 159.75 17.92 160.016 17.6533C160.301 17.3689 160.648 17.2267 161.056 17.2267C161.465 17.2267 161.803 17.3689 162.07 17.6533C162.354 17.92 162.496 18.2578 162.496 18.6667C162.496 19.0933 162.354 19.4489 162.07 19.7333C161.803 20 161.465 20.1333 161.056 20.1333Z" fill="white"/>
</svg>
