<svg width="167" height="36" viewBox="0 0 167 36" fill="none" xmlns="http://www.w3.org/2000/svg">
<g opacity="0.5">
<path d="M6.80617 11.5C8.51284 11.5 9.84617 11.9267 10.8062 12.78C11.7795 13.62 12.2662 14.7867 12.2662 16.28C12.2662 17.7733 11.7795 18.9467 10.8062 19.8C9.84617 20.6533 8.51284 21.08 6.80617 21.08H3.26617V25.5H1.82617V11.5H6.80617ZM6.76617 19.78C8.08617 19.78 9.08617 19.48 9.76617 18.88C10.4595 18.2667 10.8062 17.4 10.8062 16.28C10.8062 15.16 10.4595 14.3 9.76617 13.7C9.07284 13.1 8.07284 12.8 6.76617 12.8H3.26617V19.78H6.76617ZM16.02 17.14C16.3267 16.42 16.7933 15.8667 17.42 15.48C18.06 15.08 18.8333 14.88 19.74 14.88V16.28H19.4C18.36 16.28 17.5467 16.6133 16.96 17.28C16.3733 17.9467 16.08 18.8933 16.08 20.12V25.5H14.66V15H16.02V17.14ZM30.6422 20.6H22.3022C22.3422 21.3333 22.5289 21.9867 22.8622 22.56C23.2089 23.1333 23.6689 23.58 24.2422 23.9C24.8289 24.2067 25.4822 24.36 26.2022 24.36C26.8289 24.36 27.4022 24.2467 27.9222 24.02C28.4422 23.7933 28.8822 23.4467 29.2422 22.98L30.0422 23.88C29.5889 24.44 29.0289 24.8667 28.3622 25.16C27.6955 25.4533 26.9689 25.6 26.1822 25.6C25.1555 25.6 24.2422 25.3733 23.4422 24.92C22.6422 24.4533 22.0155 23.8133 21.5622 23C21.1222 22.1867 20.9022 21.2667 20.9022 20.24C20.9022 19.2133 21.1155 18.2933 21.5422 17.48C21.9689 16.6667 22.5555 16.0333 23.3022 15.58C24.0489 15.1133 24.8822 14.88 25.8022 14.88C26.7222 14.88 27.5489 15.1067 28.2822 15.56C29.0289 16 29.6089 16.6267 30.0222 17.44C30.4489 18.24 30.6622 19.16 30.6622 20.2L30.6422 20.6ZM25.8222 16.08C24.8489 16.08 24.0355 16.4133 23.3822 17.08C22.7422 17.7333 22.3822 18.5867 22.3022 19.64H29.3422C29.2489 18.6 28.8755 17.7467 28.2222 17.08C27.5822 16.4133 26.7822 16.08 25.8222 16.08ZM35.6964 25.6C34.8964 25.6 34.1231 25.48 33.3764 25.24C32.6297 24.9867 32.0497 24.6667 31.6364 24.28L32.1764 23.2C32.6031 23.5467 33.1364 23.84 33.7764 24.08C34.4164 24.3067 35.0764 24.42 35.7564 24.42C36.6897 24.42 37.3697 24.2667 37.7964 23.96C38.2364 23.64 38.4564 23.2067 38.4564 22.66C38.4564 22.2733 38.3364 21.9667 38.0964 21.74C37.8564 21.5133 37.5564 21.3467 37.1964 21.24C36.8364 21.12 36.3364 21 35.6964 20.88C34.8964 20.7333 34.2431 20.5733 33.7364 20.4C33.2431 20.2267 32.8231 19.94 32.4764 19.54C32.1297 19.14 31.9564 18.5867 31.9564 17.88C31.9564 17.0133 32.3031 16.3 32.9964 15.74C33.6897 15.1667 34.6697 14.88 35.9364 14.88C36.5764 14.88 37.2164 14.9733 37.8564 15.16C38.5097 15.3467 39.0431 15.5933 39.4564 15.9L38.9164 17C38.4897 16.6933 38.0164 16.4667 37.4964 16.32C36.9897 16.16 36.4697 16.08 35.9364 16.08C35.0697 16.08 34.4164 16.24 33.9764 16.56C33.5497 16.88 33.3364 17.3067 33.3364 17.84C33.3364 18.24 33.4564 18.56 33.6964 18.8C33.9497 19.04 34.2631 19.22 34.6364 19.34C35.0231 19.46 35.5297 19.58 36.1564 19.7C36.9431 19.8467 37.5764 20.0067 38.0564 20.18C38.5497 20.3533 38.9631 20.6333 39.2964 21.02C39.6431 21.4067 39.8164 21.94 39.8164 22.62C39.8164 23.5267 39.4564 24.2533 38.7364 24.8C38.0297 25.3333 37.0164 25.6 35.6964 25.6ZM50.6285 20.6H42.2885C42.3285 21.3333 42.5152 21.9867 42.8485 22.56C43.1952 23.1333 43.6552 23.58 44.2285 23.9C44.8152 24.2067 45.4685 24.36 46.1885 24.36C46.8152 24.36 47.3885 24.2467 47.9085 24.02C48.4285 23.7933 48.8685 23.4467 49.2285 22.98L50.0285 23.88C49.5752 24.44 49.0152 24.8667 48.3485 25.16C47.6818 25.4533 46.9552 25.6 46.1685 25.6C45.1418 25.6 44.2285 25.3733 43.4285 24.92C42.6285 24.4533 42.0018 23.8133 41.5485 23C41.1085 22.1867 40.8885 21.2667 40.8885 20.24C40.8885 19.2133 41.1018 18.2933 41.5285 17.48C41.9552 16.6667 42.5418 16.0333 43.2885 15.58C44.0352 15.1133 44.8685 14.88 45.7885 14.88C46.7085 14.88 47.5352 15.1067 48.2685 15.56C49.0152 16 49.5952 16.6267 50.0085 17.44C50.4352 18.24 50.6485 19.16 50.6485 20.2L50.6285 20.6ZM45.8085 16.08C44.8352 16.08 44.0218 16.4133 43.3685 17.08C42.7285 17.7333 42.3685 18.5867 42.2885 19.64H49.3285C49.2352 18.6 48.8618 17.7467 48.2085 17.08C47.5685 16.4133 46.7685 16.08 45.8085 16.08ZM57.9427 14.88C59.1827 14.88 60.1694 15.2667 60.9027 16.04C61.6361 16.8 62.0027 17.9133 62.0027 19.38V25.5H60.5827V19.56C60.5827 18.4667 60.3227 17.6333 59.8027 17.06C59.2961 16.4867 58.5694 16.2 57.6227 16.2C56.5694 16.2 55.7294 16.54 55.1027 17.22C54.4894 17.8867 54.1827 18.8133 54.1827 20V25.5H52.7627V15H54.1227V17.1C54.4694 16.4067 54.9694 15.8667 55.6227 15.48C56.2894 15.08 57.0627 14.88 57.9427 14.88ZM70.4092 24.88C70.1559 25.12 69.8426 25.3 69.4692 25.42C69.0959 25.54 68.7026 25.6 68.2892 25.6C67.3559 25.6 66.6292 25.3333 66.1092 24.8C65.6026 24.2533 65.3492 23.5 65.3492 22.54V16.26H63.5892V15.08H65.3492V12.68H66.7492V15.08H69.7692V16.26H66.7492V22.46C66.7492 23.0867 66.8959 23.5667 67.1892 23.9C67.4826 24.22 67.9092 24.38 68.4692 24.38C69.0426 24.38 69.5292 24.2 69.9292 23.84L70.4092 24.88ZM80.7574 20.6H72.4174C72.4574 21.3333 72.6441 21.9867 72.9774 22.56C73.3241 23.1333 73.7841 23.58 74.3574 23.9C74.9441 24.2067 75.5974 24.36 76.3174 24.36C76.9441 24.36 77.5174 24.2467 78.0374 24.02C78.5574 23.7933 78.9974 23.4467 79.3574 22.98L80.1574 23.88C79.7041 24.44 79.1441 24.8667 78.4774 25.16C77.8108 25.4533 77.0841 25.6 76.2974 25.6C75.2708 25.6 74.3574 25.3733 73.5574 24.92C72.7574 24.4533 72.1308 23.8133 71.6774 23C71.2374 22.1867 71.0174 21.2667 71.0174 20.24C71.0174 19.2133 71.2308 18.2933 71.6574 17.48C72.0841 16.6667 72.6708 16.0333 73.4174 15.58C74.1641 15.1133 74.9974 14.88 75.9174 14.88C76.8374 14.88 77.6641 15.1067 78.3974 15.56C79.1441 16 79.7241 16.6267 80.1374 17.44C80.5641 18.24 80.7774 19.16 80.7774 20.2L80.7574 20.6ZM75.9374 16.08C74.9641 16.08 74.1508 16.4133 73.4974 17.08C72.8574 17.7333 72.4974 18.5867 72.4174 19.64H79.4574C79.3641 18.6 78.9908 17.7467 78.3374 17.08C77.6974 16.4133 76.8974 16.08 75.9374 16.08ZM92.2716 25.5H90.9316V23.2C90.545 23.96 90.0116 24.5533 89.3316 24.98C88.665 25.3933 87.8983 25.6 87.0316 25.6C86.0983 25.6 85.2583 25.3733 84.5116 24.92C83.765 24.4667 83.1716 23.8333 82.7316 23.02C82.305 22.2067 82.0916 21.28 82.0916 20.24C82.0916 19.2 82.305 18.2733 82.7316 17.46C83.1716 16.6467 83.765 16.0133 84.5116 15.56C85.2583 15.1067 86.0983 14.88 87.0316 14.88C87.8716 14.88 88.625 15.0867 89.2916 15.5C89.9716 15.9133 90.4983 16.4867 90.8716 17.22V10.66H92.2716V25.5ZM87.2116 24.34C87.905 24.34 88.5316 24.1733 89.0916 23.84C89.6516 23.4933 90.0916 23.0067 90.4116 22.38C90.7316 21.7533 90.8916 21.04 90.8916 20.24C90.8916 19.44 90.7316 18.7333 90.4116 18.12C90.0916 17.4933 89.6516 17.0133 89.0916 16.68C88.5316 16.3333 87.905 16.16 87.2116 16.16C86.5183 16.16 85.8916 16.3333 85.3316 16.68C84.7716 17.0133 84.3316 17.4933 84.0116 18.12C83.6916 18.7333 83.5316 19.44 83.5316 20.24C83.5316 21.04 83.6916 21.7533 84.0116 22.38C84.3316 23.0067 84.7716 23.4933 85.3316 23.84C85.8916 24.1733 86.5183 24.34 87.2116 24.34ZM107.605 18.28C108.551 18.4667 109.271 18.86 109.765 19.46C110.271 20.0467 110.525 20.82 110.525 21.78C110.525 22.98 110.098 23.9 109.245 24.54C108.405 25.18 107.158 25.5 105.505 25.5H99.3848V11.5H105.125C106.605 11.5 107.758 11.8133 108.585 12.44C109.411 13.0667 109.825 13.9467 109.825 15.08C109.825 15.88 109.625 16.5533 109.225 17.1C108.838 17.6333 108.298 18.0267 107.605 18.28ZM100.825 17.82H105.025C106.091 17.82 106.911 17.6 107.485 17.16C108.071 16.72 108.365 16.0867 108.365 15.26C108.365 14.4333 108.071 13.8067 107.485 13.38C106.911 12.94 106.091 12.72 105.025 12.72H100.825V17.82ZM105.465 24.28C106.651 24.28 107.545 24.0667 108.145 23.64C108.745 23.2133 109.045 22.5467 109.045 21.64C109.045 19.8667 107.851 18.98 105.465 18.98H100.825V24.28H105.465ZM116.419 26.76C116.019 27.7467 115.546 28.4467 114.999 28.86C114.453 29.2733 113.813 29.48 113.079 29.48C112.599 29.48 112.139 29.4 111.699 29.24C111.273 29.08 110.919 28.8467 110.639 28.54L111.259 27.44C111.753 27.9733 112.346 28.24 113.039 28.24C113.453 28.24 113.799 28.1333 114.079 27.92C114.359 27.72 114.599 27.44 114.799 27.08C114.999 26.7333 115.253 26.2133 115.559 25.52L111.099 15H112.559L116.279 23.84L119.999 15H121.399L116.419 26.76ZM122.542 25.6C122.236 25.6 121.976 25.5 121.762 25.3C121.562 25.0867 121.462 24.82 121.462 24.5C121.462 24.1933 121.562 23.94 121.762 23.74C121.976 23.5267 122.236 23.42 122.542 23.42C122.849 23.42 123.102 23.5267 123.302 23.74C123.516 23.94 123.622 24.1933 123.622 24.5C123.622 24.82 123.516 25.0867 123.302 25.3C123.102 25.5 122.849 25.6 122.542 25.6Z" fill="white"/>
<path fill-rule="evenodd" clip-rule="evenodd" d="M135.148 21.1992H147.922V24.5039H135.148V21.1992ZM135.148 26.9473H147.922V30.252H135.148V26.9473Z" fill="white" fill-opacity="0.5"/>
<path d="M162.898 30.7704L150.603 30.7704L150.603 20.8296L162.746 20.8296L162.746 23.9034L153.829 23.9034L153.829 27.6748L162.898 27.6748L162.898 30.7704Z" fill="white"/>
<path d="M156.277 13.0335C155.39 14.138 154.38 15.01 153.247 15.6495C152.128 16.2744 150.987 16.5942 149.824 16.6087V13.4695C150.623 13.455 151.444 13.128 152.287 12.4885C153.145 11.849 153.879 10.9698 154.489 9.8507C155.1 8.73164 155.463 7.50357 155.579 6.1665L158.827 6.7115C158.697 8.00497 158.362 9.2403 157.825 10.4175L163.798 14.1017L162.141 16.8049L156.277 13.0335Z" fill="white"/>
<path d="M147.84 9.58334H135.109V6.68394H139.862V4.93994L143.088 4.93994V6.68394L147.84 6.68394V9.58334ZM141.475 10.2373C143.03 10.2373 144.309 10.5861 145.312 11.2837C146.329 11.9668 146.838 12.926 146.838 14.1613C146.838 15.4112 146.336 16.3777 145.333 17.0607C144.331 17.7438 143.044 18.0853 141.475 18.0853C139.905 18.0853 138.619 17.7438 137.616 17.0607C136.613 16.3777 136.112 15.4112 136.112 14.1613C136.112 12.926 136.613 11.9668 137.616 11.2837C138.633 10.5861 139.92 10.2373 141.475 10.2373ZM141.475 15.4257C142.129 15.4257 142.645 15.3167 143.023 15.0987C143.415 14.8662 143.611 14.5537 143.611 14.1613C143.611 13.7689 143.415 13.4637 143.023 13.2457C142.645 13.0277 142.129 12.9187 141.475 12.9187C140.821 12.9187 140.298 13.0277 139.905 13.2457C139.513 13.4637 139.317 13.7689 139.317 14.1613C139.317 14.5537 139.513 14.8662 139.905 15.0987C140.298 15.3167 140.821 15.4257 141.475 15.4257Z" fill="white"/>
</g>
</svg>
